<?xml version="1.0" encoding="UTF-8" standalone="no"?>
<!-- Created with Inkscape (http://www.inkscape.org/) -->

<svg
   width="210mm"
   height="297mm"
   viewBox="0 0 210 297"
   version="1.1"
   id="svg5"
   xml:space="preserve"
   inkscape:version="1.2 (dc2aedaf03, 2022-05-15)"
   sodipodi:docname="panneaux.svg"
   xmlns:inkscape="http://www.inkscape.org/namespaces/inkscape"
   xmlns:sodipodi="http://sodipodi.sourceforge.net/DTD/sodipodi-0.dtd"
   xmlns="http://www.w3.org/2000/svg"
   xmlns:svg="http://www.w3.org/2000/svg"><sodipodi:namedview
     id="namedview7"
     pagecolor="#505050"
     bordercolor="#eeeeee"
     borderopacity="1"
     inkscape:showpageshadow="0"
     inkscape:pageopacity="0"
     inkscape:pagecheckerboard="0"
     inkscape:deskcolor="#505050"
     inkscape:document-units="mm"
     showgrid="false"
     inkscape:zoom="1.5547864"
     inkscape:cx="136.03155"
     inkscape:cy="224.14655"
     inkscape:window-width="2400"
     inkscape:window-height="1261"
     inkscape:window-x="-9"
     inkscape:window-y="-9"
     inkscape:window-maximized="1"
     inkscape:current-layer="layer1" /><defs
     id="defs2"><inkscape:path-effect
       effect="simplify"
       id="path-effect8116"
       is_visible="true"
       lpeversion="1"
       steps="1"
       threshold="0.00275"
       smooth_angles="360"
       helper_size="0"
       simplify_individual_paths="false"
       simplify_just_coalesce="false" /><inkscape:path-effect
       effect="simplify"
       id="path-effect2782"
       is_visible="true"
       lpeversion="1"
       steps="1"
       threshold="0.00275"
       smooth_angles="360"
       helper_size="0"
       simplify_individual_paths="false"
       simplify_just_coalesce="false" /><inkscape:path-effect
       effect="simplify"
       id="path-effect2782-5"
       is_visible="true"
       lpeversion="1"
       steps="1"
       threshold="0.00275"
       smooth_angles="360"
       helper_size="0"
       simplify_individual_paths="false"
       simplify_just_coalesce="false" /></defs><g
     inkscape:label="Calque 1"
     inkscape:groupmode="layer"
     id="layer1"><rect
       style="fill:#333333;stroke:none;stroke-width:0.690656;stroke-linecap:round;paint-order:stroke fill markers"
       id="rect602"
       width="58.208332"
       height="149.08861"
       x="-5.5511151e-17"
       y="1.3877788e-17" /><path
       style="fill:#ffffff;stroke-width:0.124653"
       d="m 47.222935,58.892704 c 0,-0.205681 0.05609,-0.373963 0.124653,-0.373963 0.06856,0 0.124652,0.168282 0.124652,0.373963 0,0.205678 -0.05609,0.373964 -0.124652,0.373964 -0.06856,0 -0.124653,-0.168286 -0.124653,-0.373964 z m -0.804262,-0.136242 c 0.109657,-0.212044 0.225386,-0.359527 0.257178,-0.327743 0.0849,0.0849 -0.222304,0.71329 -0.348704,0.71329 -0.05932,0 -0.01814,-0.173498 0.09153,-0.385547 z m 1.692178,0.05781 c -0.213763,-0.469158 -0.07255,-0.518433 0.16565,-0.05781 0.109657,0.212049 0.150842,0.385547 0.09153,0.385547 -0.05932,0 -0.175045,-0.147483 -0.257177,-0.327744 z m -2.420747,-0.47859 c 0.22572,-0.310126 0.410946,-0.404879 0.410946,-0.210217 0,0.123624 -0.415237,0.517937 -0.545416,0.517937 -0.04921,0 0.01131,-0.138474 0.13447,-0.30772 z m 3.110324,0.07976 c -0.220441,-0.243581 -0.264879,-0.397765 -0.112811,-0.391393 0.135954,0.0057 0.562264,0.619354 0.430266,0.619354 -0.06113,0 -0.203991,-0.102578 -0.317455,-0.227961 z m -2.274991,-0.258679 c -0.433089,-0.196691 -1.047658,-0.888746 -1.047658,-1.179748 0,-0.192775 0.364977,-0.05415 0.43455,0.165061 0.146451,0.461412 0.789223,0.878197 1.351331,0.876208 0.664401,-0.0022 1.078691,-0.214672 1.392551,-0.713682 0.137251,-0.218214 0.319667,-0.398921 0.405368,-0.401562 0.214992,-0.0066 0.197267,0.08568 -0.112753,0.587309 -0.284243,0.459918 -1.06564,0.898264 -1.601238,0.898264 -0.171399,0 -0.541366,-0.104333 -0.822151,-0.23185 z m -1.546272,-0.11943 c 0,-0.06226 0.140232,-0.205074 0.311636,-0.317377 0.171398,-0.11231 0.31163,-0.15326 0.31163,-0.09101 0,0.06226 -0.140232,0.205083 -0.31163,0.317385 -0.171404,0.112302 -0.311636,0.153257 -0.311636,0.091 z m 4.362883,-0.141856 c -0.169349,-0.127746 -0.274623,-0.26555 -0.233941,-0.30623 0.0407,-0.04068 0.208128,0.03483 0.372101,0.167724 0.388985,0.315353 0.263316,0.441335 -0.13816,0.138506 z"
       id="path302"
       sodipodi:nodetypes="ssssssssssssscsscsssssssssssssssssssccs" /><path
       d="m 38.495479,59.208985 c -0.424469,-0.122931 -1.332834,-0.757134 -1.423734,-0.994014 -0.09072,-0.236421 0.01903,-0.437703 0.394055,-0.722764 0.574334,-0.43654 0.99879,-0.606789 1.512792,-0.606789 0.599168,0 1.070324,0.210866 1.671183,0.747941 l 0.452428,0.404397 -0.367937,0.382969 c -0.636796,0.662814 -1.555311,0.986215 -2.238787,0.78826 z m -0.371103,-0.684477 c -0.20015,-0.383792 -0.20163,-0.549824 -0.0082,-0.920597 0.205134,-0.393246 0.07273,-0.368564 -0.428991,0.07999 l -0.416894,0.372704 0.474649,0.421087 c 0.261056,0.231598 0.489436,0.406301 0.507507,0.38823 0.01807,-0.01805 -0.03954,-0.171707 -0.128056,-0.341407 z m 2.337692,-0.253386 0.211402,-0.23391 -0.406188,-0.372245 c -0.223403,-0.204732 -0.435086,-0.343341 -0.470412,-0.308012 -0.03532,0.03532 -0.0075,0.120906 0.06172,0.190184 0.17935,0.179347 0.156559,0.883454 -0.03372,1.041359 -0.08781,0.07288 -0.159665,0.177804 -0.159665,0.233168 0,0.121788 0.503771,-0.226274 0.796839,-0.550544 z m -1.914483,0.210938 c -0.0515,-0.08333 -0.112729,-0.08951 -0.18369,-0.01854 -0.05854,0.05854 -0.07168,0.162684 -0.02921,0.23143 0.0515,0.08333 0.112733,0.08951 0.183692,0.01854 0.05854,-0.05854 0.07168,-0.162684 0.02921,-0.23143 z m 1.106448,-0.67839 c 0.24877,-0.299745 -0.181535,-0.730057 -0.481287,-0.481288 -0.153803,0.127651 -0.195506,0.436203 -0.07521,0.556501 0.120296,0.120295 0.428851,0.07859 0.556496,-0.07522 z"
       style="fill:#ffffff;stroke-width:0.106442"
       id="path359" /><path
       style="fill:#ffffff;stroke-width:0.124653"
       d="m 47.222935,63.919786 c 0,-0.205681 0.05609,-0.373963 0.124653,-0.373963 0.06856,0 0.124652,0.168282 0.124652,0.373963 0,0.205678 -0.05609,0.373964 -0.124652,0.373964 -0.06856,0 -0.124653,-0.168286 -0.124653,-0.373964 z m -0.804262,-0.136242 c 0.109657,-0.212044 0.225386,-0.359527 0.257178,-0.327743 0.0849,0.0849 -0.222304,0.71329 -0.348704,0.71329 -0.05932,0 -0.01814,-0.173498 0.09153,-0.385547 z m 1.692178,0.05781 c -0.213763,-0.469158 -0.07255,-0.518433 0.16565,-0.05781 0.109657,0.212049 0.150842,0.385547 0.09153,0.385547 -0.05932,0 -0.175045,-0.147483 -0.257177,-0.327744 z m -2.420747,-0.47859 c 0.22572,-0.310126 0.410946,-0.404878 0.410946,-0.210217 0,0.123624 -0.415237,0.517937 -0.545416,0.517937 -0.04921,0 0.01131,-0.138474 0.13447,-0.30772 z m 3.110324,0.07976 c -0.220441,-0.243581 -0.264879,-0.397765 -0.112811,-0.391393 0.135954,0.0057 0.562264,0.619354 0.430266,0.619354 -0.06113,0 -0.203991,-0.102578 -0.317455,-0.227961 z m -2.274991,-0.258679 c -0.433089,-0.19669 -1.047658,-0.888745 -1.047658,-1.179747 0,-0.192775 0.364977,-0.05415 0.43455,0.165061 0.146451,0.461411 0.789223,0.878196 1.351331,0.876207 0.664401,-0.0022 1.078691,-0.214671 1.392551,-0.713681 0.137251,-0.218214 0.319667,-0.398921 0.405368,-0.401562 0.214992,-0.0066 0.197267,0.08568 -0.112753,0.587308 -0.284243,0.459919 -1.06564,0.898264 -1.601238,0.898264 -0.171399,0 -0.541366,-0.104333 -0.822151,-0.23185 z m -1.546272,-0.11943 c 0,-0.06226 0.140232,-0.205073 0.311636,-0.317376 0.171398,-0.112311 0.31163,-0.153261 0.31163,-0.09101 0,0.06226 -0.140232,0.205083 -0.31163,0.317385 -0.171404,0.112301 -0.311636,0.153256 -0.311636,0.091 z m 4.362883,-0.141855 c -0.169349,-0.127746 -0.274623,-0.26555 -0.233941,-0.30623 0.0407,-0.04068 0.208128,0.03483 0.372101,0.167724 0.388985,0.315352 0.263316,0.441334 -0.13816,0.138506 z"
       id="path302-6"
       sodipodi:nodetypes="ssssssssssssscsscsssssssssssssssssssccs" /><path
       d="m 38.495479,64.236067 c -0.424469,-0.122931 -1.332834,-0.757134 -1.423734,-0.994014 -0.09072,-0.236421 0.01903,-0.437702 0.394055,-0.722764 0.574334,-0.43654 0.99879,-0.606788 1.512792,-0.606788 0.599168,0 1.070324,0.210865 1.671183,0.74794 l 0.452428,0.404397 -0.367937,0.382969 c -0.636796,0.662814 -1.555311,0.986215 -2.238787,0.78826 z M 38.124376,63.55159 c -0.20015,-0.383792 -0.20163,-0.549824 -0.0082,-0.920597 0.205134,-0.393246 0.07273,-0.368563 -0.428991,0.07998 l -0.416894,0.372704 0.474649,0.421087 c 0.261056,0.231598 0.489436,0.406301 0.507507,0.38823 0.01807,-0.01805 -0.03954,-0.171707 -0.128056,-0.341407 z m 2.337692,-0.253386 0.211402,-0.23391 -0.406188,-0.372245 c -0.223403,-0.204732 -0.435086,-0.343341 -0.470412,-0.308012 -0.03532,0.03532 -0.0075,0.120906 0.06172,0.190184 0.17935,0.179348 0.156559,0.883454 -0.03372,1.041359 -0.08781,0.07288 -0.159665,0.177804 -0.159665,0.233168 0,0.121788 0.503771,-0.226274 0.796839,-0.550544 z m -1.914483,0.210938 c -0.0515,-0.08333 -0.112729,-0.08951 -0.18369,-0.01854 -0.05854,0.05854 -0.07168,0.162684 -0.02921,0.23143 0.0515,0.08333 0.112733,0.08951 0.183692,0.01854 0.05854,-0.05854 0.07168,-0.162684 0.02921,-0.23143 z m 1.106448,-0.678389 c 0.24877,-0.299746 -0.181535,-0.730058 -0.481287,-0.481289 -0.153803,0.127651 -0.195506,0.436203 -0.07521,0.556502 0.120296,0.120294 0.428851,0.07859 0.556496,-0.07522 z"
       style="fill:#ffffff;stroke-width:0.106442"
       id="path359-7" /><path
       style="fill:#ffffff;stroke-width:0.124653"
       d="m 47.222935,69.476037 c 0,-0.205681 0.05609,-0.373963 0.124653,-0.373963 0.06856,0 0.124652,0.168282 0.124652,0.373963 0,0.205678 -0.05609,0.373964 -0.124652,0.373964 -0.06856,0 -0.124653,-0.168286 -0.124653,-0.373964 z m -0.804262,-0.136242 c 0.109657,-0.212044 0.225386,-0.359527 0.257178,-0.327743 0.0849,0.0849 -0.222304,0.71329 -0.348704,0.71329 -0.05932,0 -0.01814,-0.173498 0.09153,-0.385547 z m 1.692178,0.05781 c -0.213763,-0.469158 -0.07255,-0.518433 0.16565,-0.05781 0.109657,0.212049 0.150842,0.385547 0.09153,0.385547 -0.05932,0 -0.175045,-0.147483 -0.257177,-0.327744 z m -2.420747,-0.47859 c 0.22572,-0.310126 0.410946,-0.404879 0.410946,-0.210217 0,0.123624 -0.415237,0.517937 -0.545416,0.517937 -0.04921,0 0.01131,-0.138474 0.13447,-0.30772 z m 3.110324,0.07976 c -0.220441,-0.243581 -0.264879,-0.397765 -0.112811,-0.391393 0.135954,0.0057 0.562264,0.619354 0.430266,0.619354 -0.06113,0 -0.203991,-0.102578 -0.317455,-0.227961 z m -2.274991,-0.258679 c -0.433089,-0.196691 -1.047658,-0.888746 -1.047658,-1.179748 0,-0.192775 0.364977,-0.05415 0.43455,0.165061 0.146451,0.461412 0.789223,0.878197 1.351331,0.876208 0.664401,-0.0022 1.078691,-0.214672 1.392551,-0.713682 0.137251,-0.218214 0.319667,-0.398921 0.405368,-0.401562 0.214992,-0.0066 0.197267,0.08568 -0.112753,0.587309 -0.284243,0.459918 -1.06564,0.898264 -1.601238,0.898264 -0.171399,0 -0.541366,-0.104333 -0.822151,-0.23185 z m -1.546272,-0.11943 c 0,-0.06226 0.140232,-0.205074 0.311636,-0.317377 0.171398,-0.11231 0.31163,-0.15326 0.31163,-0.09101 0,0.06226 -0.140232,0.205083 -0.31163,0.317385 -0.171404,0.112302 -0.311636,0.153257 -0.311636,0.091 z m 4.362883,-0.141855 c -0.169349,-0.127746 -0.274623,-0.265551 -0.233941,-0.306231 0.0407,-0.04068 0.208128,0.03483 0.372101,0.167724 0.388985,0.315353 0.263316,0.441335 -0.13816,0.138507 z"
       id="path302-8"
       sodipodi:nodetypes="ssssssssssssscsscsssssssssssssssssssccs" /><path
       d="m 38.495479,69.792318 c -0.424469,-0.122931 -1.332834,-0.757134 -1.423734,-0.994014 -0.09072,-0.236421 0.01903,-0.437703 0.394055,-0.722764 0.574334,-0.43654 0.99879,-0.606789 1.512792,-0.606789 0.599168,0 1.070324,0.210866 1.671183,0.747941 l 0.452428,0.404397 -0.367937,0.382969 c -0.636796,0.662814 -1.555311,0.986215 -2.238787,0.78826 z m -0.371103,-0.684477 c -0.20015,-0.383792 -0.20163,-0.549824 -0.0082,-0.920597 0.205134,-0.393246 0.07273,-0.368564 -0.428991,0.07998 l -0.416894,0.372704 0.474649,0.421087 c 0.261056,0.231598 0.489436,0.406301 0.507507,0.38823 0.01807,-0.01805 -0.03954,-0.171707 -0.128056,-0.341407 z m 2.337692,-0.253386 0.211402,-0.23391 -0.406188,-0.372245 c -0.223403,-0.204732 -0.435086,-0.343341 -0.470412,-0.308012 -0.03532,0.03532 -0.0075,0.120906 0.06172,0.190184 0.17935,0.179347 0.156559,0.883454 -0.03372,1.041359 -0.08781,0.07288 -0.159665,0.177804 -0.159665,0.233168 0,0.121788 0.503771,-0.226274 0.796839,-0.550544 z m -1.914483,0.210938 c -0.0515,-0.08333 -0.112729,-0.08951 -0.18369,-0.01854 -0.05854,0.05854 -0.07168,0.162684 -0.02921,0.23143 0.0515,0.08333 0.112733,0.08951 0.183692,0.01854 0.05854,-0.05854 0.07168,-0.162684 0.02921,-0.23143 z m 1.106448,-0.678389 c 0.24877,-0.299746 -0.181535,-0.730058 -0.481287,-0.481289 -0.153803,0.127651 -0.195506,0.436203 -0.07521,0.556501 0.120296,0.120295 0.428851,0.07859 0.556496,-0.07522 z"
       style="fill:#ffffff;stroke-width:0.106442"
       id="path359-3" /><text
       xml:space="preserve"
       style="font-size:4.23333px;line-height:1.25;font-family:Arial;-inkscape-font-specification:Arial;letter-spacing:0px;word-spacing:0px;fill:#ffffff;stroke-width:0.264583"
       x="2.2902999"
       y="50.50441"
       id="text1939"><tspan
         sodipodi:role="line"
         id="tspan1937"
         style="font-style:normal;font-variant:normal;font-weight:normal;font-stretch:normal;font-size:4.23333px;font-family:Calibri;-inkscape-font-specification:Calibri;fill:#ffffff;stroke-width:0.264583"
         x="2.2902999"
         y="50.50441">Les calques</tspan></text><text
       xml:space="preserve"
       style="font-size:3.52778px;line-height:1.25;font-family:Arial;-inkscape-font-specification:Arial;letter-spacing:0px;word-spacing:0px;fill:#ffffff;stroke-width:0.264583"
       x="7.9116616"
       y="59.23394"
       id="text1939-7"><tspan
         sodipodi:role="line"
         id="tspan1937-9"
         style="font-style:normal;font-variant:normal;font-weight:normal;font-stretch:normal;font-size:3.52778px;font-family:Calibri;-inkscape-font-specification:Calibri;fill:#ffffff;stroke-width:0.264583"
         x="7.9116616"
         y="59.23394">Terrain</tspan></text><text
       xml:space="preserve"
       style="font-size:3.52778px;line-height:1.25;font-family:Arial;-inkscape-font-specification:Arial;letter-spacing:0px;word-spacing:0px;fill:#ffffff;stroke-width:0.264583"
       x="7.7704129"
       y="19.06826"
       id="text1939-7-7"><tspan
         sodipodi:role="line"
         id="tspan1937-9-1"
         style="font-style:normal;font-variant:normal;font-weight:normal;font-stretch:normal;font-size:3.52778px;font-family:Calibri;-inkscape-font-specification:Calibri;fill:#ffffff;stroke-width:0.264583"
         x="7.7704129"
         y="19.06826">Camera libre</tspan></text><text
       xml:space="preserve"
       style="font-size:3.52778px;line-height:1.25;font-family:Arial;-inkscape-font-specification:Arial;letter-spacing:0px;word-spacing:0px;fill:#ffffff;stroke-width:0.264583"
       x="7.6377764"
       y="24.734064"
       id="text1939-7-7-5"><tspan
         sodipodi:role="line"
         id="tspan1937-9-1-1"
         style="font-style:normal;font-variant:normal;font-weight:normal;font-stretch:normal;font-size:3.52778px;font-family:Calibri;-inkscape-font-specification:Calibri;fill:#ffffff;stroke-width:0.264583"
         x="7.6377764"
         y="24.734064">1er personne</tspan></text><text
       xml:space="preserve"
       style="font-size:3.52778px;line-height:1.25;font-family:Arial;-inkscape-font-specification:Arial;letter-spacing:0px;word-spacing:0px;fill:#ffffff;stroke-width:0.264583"
       x="7.641221"
       y="29.916178"
       id="text1939-7-7-5-5"><tspan
         sodipodi:role="line"
         id="tspan1937-9-1-1-6"
         style="font-style:normal;font-variant:normal;font-weight:normal;font-stretch:normal;font-size:3.52778px;font-family:Calibri;-inkscape-font-specification:Calibri;fill:#ffffff;stroke-width:0.264583"
         x="7.641221"
         y="29.916178">Plan 1</tspan></text><text
       xml:space="preserve"
       style="font-size:3.52778px;line-height:1.25;font-family:Arial;-inkscape-font-specification:Arial;letter-spacing:0px;word-spacing:0px;fill:#ffffff;stroke-width:0.264583"
       x="7.7704129"
       y="35.064873"
       id="text1939-7-7-5-5-5"><tspan
         sodipodi:role="line"
         id="tspan1937-9-1-1-6-3"
         style="font-style:normal;font-variant:normal;font-weight:normal;font-stretch:normal;font-size:3.52778px;font-family:Calibri;-inkscape-font-specification:Calibri;fill:#ffffff;stroke-width:0.264583"
         x="7.7704129"
         y="35.064873">Coupe</tspan></text><text
       xml:space="preserve"
       style="font-size:3.52778px;line-height:1.25;font-family:Arial;-inkscape-font-specification:Arial;letter-spacing:0px;word-spacing:0px;fill:#ffffff;stroke-width:0.264583"
       x="7.7807479"
       y="64.261024"
       id="text1939-7-8"><tspan
         sodipodi:role="line"
         id="tspan1937-9-0"
         style="font-style:normal;font-variant:normal;font-weight:normal;font-stretch:normal;font-size:3.52778px;font-family:Calibri;-inkscape-font-specification:Calibri;fill:#ffffff;stroke-width:0.264583"
         x="7.7807479"
         y="64.261024">Gros-oeuvre</tspan></text><text
       xml:space="preserve"
       style="font-size:3.52778px;line-height:1.25;font-family:Arial;-inkscape-font-specification:Arial;letter-spacing:0px;word-spacing:0px;fill:#ffffff;stroke-width:0.264583"
       x="7.6412215"
       y="69.817268"
       id="text1939-7-8-0"><tspan
         sodipodi:role="line"
         id="tspan1937-9-0-7"
         style="font-style:normal;font-variant:normal;font-weight:normal;font-stretch:normal;font-size:3.52778px;font-family:Calibri;-inkscape-font-specification:Calibri;fill:#ffffff;stroke-width:0.264583"
         x="7.6412215"
         y="69.817268">Menuiseries</tspan></text><text
       xml:space="preserve"
       style="font-size:3.52778px;line-height:1.25;font-family:Arial;-inkscape-font-specification:Arial;letter-spacing:0px;word-spacing:0px;fill:#ffffff;stroke-width:0.264583"
       x="7.8151989"
       y="74.844353"
       id="text1939-7-8-0-5"><tspan
         sodipodi:role="line"
         id="tspan1937-9-0-7-6"
         style="font-style:normal;font-variant:normal;font-weight:normal;font-stretch:normal;font-size:3.52778px;font-family:Calibri;-inkscape-font-specification:Calibri;fill:#ffffff;stroke-width:0.264583"
         x="7.8151989"
         y="74.844353">Second-oeuvre</tspan></text><path
       style="fill:#ffffff;stroke-width:0.124653"
       d="m 47.222935,74.503119 c 0,-0.205681 0.05609,-0.373963 0.124653,-0.373963 0.06856,0 0.124652,0.168282 0.124652,0.373963 0,0.205678 -0.05609,0.373964 -0.124652,0.373964 -0.06856,0 -0.124653,-0.168286 -0.124653,-0.373964 z m -0.804262,-0.136242 c 0.109657,-0.212044 0.225386,-0.359527 0.257178,-0.327743 0.0849,0.0849 -0.222304,0.71329 -0.348704,0.71329 -0.05932,0 -0.01814,-0.173498 0.09153,-0.385547 z m 1.692178,0.05781 c -0.213763,-0.469158 -0.07255,-0.518433 0.16565,-0.05781 0.109657,0.212049 0.150842,0.385547 0.09153,0.385547 -0.05932,0 -0.175045,-0.147483 -0.257177,-0.327744 z m -2.420747,-0.47859 c 0.22572,-0.310126 0.410946,-0.404878 0.410946,-0.210217 0,0.123624 -0.415237,0.517937 -0.545416,0.517937 -0.04921,0 0.01131,-0.138474 0.13447,-0.30772 z m 3.110324,0.07976 c -0.220441,-0.243581 -0.264879,-0.397765 -0.112811,-0.391393 0.135954,0.0057 0.562264,0.619354 0.430266,0.619354 -0.06113,0 -0.203991,-0.102578 -0.317455,-0.227961 z m -2.274991,-0.258679 c -0.433089,-0.196691 -1.047658,-0.888746 -1.047658,-1.179748 0,-0.192775 0.364977,-0.05415 0.43455,0.165061 0.146451,0.461412 0.789223,0.878197 1.351331,0.876208 0.664401,-0.0022 1.078691,-0.214672 1.392551,-0.713682 0.137251,-0.218214 0.319667,-0.398921 0.405368,-0.401562 0.214992,-0.0066 0.197267,0.08568 -0.112753,0.587309 -0.284243,0.459918 -1.06564,0.898264 -1.601238,0.898264 -0.171399,0 -0.541366,-0.104333 -0.822151,-0.23185 z m -1.546272,-0.11943 c 0,-0.06226 0.140232,-0.205074 0.311636,-0.317377 0.171398,-0.11231 0.31163,-0.15326 0.31163,-0.09101 0,0.06226 -0.140232,0.205084 -0.31163,0.317386 -0.171404,0.112301 -0.311636,0.153256 -0.311636,0.091 z m 4.362883,-0.141855 c -0.169349,-0.127746 -0.274623,-0.26555 -0.233941,-0.30623 0.0407,-0.04068 0.208128,0.03483 0.372101,0.167724 0.388985,0.315352 0.263316,0.441334 -0.13816,0.138506 z"
       id="path302-0"
       sodipodi:nodetypes="ssssssssssssscsscsssssssssssssssssssccs" /><path
       d="m 38.495479,74.8194 c -0.424469,-0.122931 -1.332834,-0.757134 -1.423734,-0.994014 -0.09072,-0.236421 0.01903,-0.437702 0.394055,-0.722764 0.574334,-0.43654 0.99879,-0.606789 1.512792,-0.606789 0.599168,0 1.070324,0.210866 1.671183,0.747941 l 0.452428,0.404397 -0.367937,0.382969 c -0.636796,0.662814 -1.555311,0.986215 -2.238787,0.78826 z m -0.371103,-0.684477 c -0.20015,-0.383792 -0.20163,-0.549824 -0.0082,-0.920597 0.205134,-0.393246 0.07273,-0.368564 -0.428991,0.07999 l -0.416894,0.372704 0.474649,0.421087 c 0.261056,0.231598 0.489436,0.406301 0.507507,0.38823 0.01807,-0.01805 -0.03954,-0.171707 -0.128056,-0.341407 z m 2.337692,-0.253386 0.211402,-0.23391 -0.406188,-0.372245 C 40.043879,73.07065 39.832196,72.932041 39.79687,72.96737 c -0.03532,0.03532 -0.0075,0.120906 0.06172,0.190184 0.17935,0.179348 0.156559,0.883454 -0.03372,1.041359 -0.08781,0.07288 -0.159665,0.177804 -0.159665,0.233168 0,0.121788 0.503771,-0.226274 0.796839,-0.550544 z m -1.914483,0.210938 c -0.0515,-0.08333 -0.112729,-0.08951 -0.18369,-0.01854 -0.05854,0.05854 -0.07168,0.162684 -0.02921,0.23143 0.0515,0.08333 0.112733,0.08951 0.183692,0.01854 0.05854,-0.05854 0.07168,-0.162684 0.02921,-0.23143 z m 1.106448,-0.678389 c 0.24877,-0.299746 -0.181535,-0.730058 -0.481287,-0.481289 -0.153803,0.127651 -0.195506,0.436203 -0.07521,0.556502 0.120296,0.120294 0.428851,0.07859 0.556496,-0.07522 z"
       style="fill:#ffffff;stroke-width:0.106442"
       id="path359-1" /><path
       style="fill:#ffffff;stroke-width:0.124653"
       d="m 47.222935,79.530203 c 0,-0.205681 0.05609,-0.373963 0.124653,-0.373963 0.06856,0 0.124652,0.168282 0.124652,0.373963 0,0.205678 -0.05609,0.373964 -0.124652,0.373964 -0.06856,0 -0.124653,-0.168286 -0.124653,-0.373964 z m -0.804262,-0.136242 c 0.109657,-0.212044 0.225386,-0.359527 0.257178,-0.327743 0.0849,0.0849 -0.222304,0.71329 -0.348704,0.71329 -0.05932,0 -0.01814,-0.173498 0.09153,-0.385547 z m 1.692178,0.05781 c -0.213763,-0.469158 -0.07255,-0.518433 0.16565,-0.05781 0.109657,0.212049 0.150842,0.385547 0.09153,0.385547 -0.05932,0 -0.175045,-0.147483 -0.257177,-0.327744 z m -2.420747,-0.47859 c 0.22572,-0.310126 0.410946,-0.404878 0.410946,-0.210217 0,0.123624 -0.415237,0.517937 -0.545416,0.517937 -0.04921,0 0.01131,-0.138474 0.13447,-0.30772 z m 3.110324,0.07976 c -0.220441,-0.243581 -0.264879,-0.397765 -0.112811,-0.391393 0.135954,0.0057 0.562264,0.619354 0.430266,0.619354 -0.06113,0 -0.203991,-0.102578 -0.317455,-0.227961 z m -2.274991,-0.258679 c -0.433089,-0.196691 -1.047658,-0.888746 -1.047658,-1.179748 0,-0.192774 0.364977,-0.05415 0.43455,0.165061 0.146451,0.461412 0.789223,0.878197 1.351331,0.876208 0.664401,-0.0022 1.078691,-0.214672 1.392551,-0.713682 0.137251,-0.218214 0.319667,-0.398921 0.405368,-0.401562 0.214992,-0.0066 0.197267,0.08568 -0.112753,0.587309 -0.284243,0.459918 -1.06564,0.898264 -1.601238,0.898264 -0.171399,0 -0.541366,-0.104333 -0.822151,-0.23185 z m -1.546272,-0.11943 c 0,-0.06226 0.140232,-0.205074 0.311636,-0.317377 0.171398,-0.11231 0.31163,-0.15326 0.31163,-0.09101 0,0.06226 -0.140232,0.205084 -0.31163,0.317386 -0.171404,0.112301 -0.311636,0.153256 -0.311636,0.091 z m 4.362883,-0.141855 c -0.169349,-0.127746 -0.274623,-0.26555 -0.233941,-0.30623 0.0407,-0.04068 0.208128,0.03483 0.372101,0.167724 0.388985,0.315352 0.263316,0.441334 -0.13816,0.138506 z"
       id="path302-5"
       sodipodi:nodetypes="ssssssssssssscsscsssssssssssssssssssccs" /><path
       d="M 38.495479,79.846484 C 38.07101,79.723553 37.162645,79.08935 37.071745,78.85247 c -0.09072,-0.236421 0.01903,-0.437702 0.394055,-0.722764 0.574334,-0.43654 0.99879,-0.606789 1.512792,-0.606789 0.599168,0 1.070324,0.210866 1.671183,0.747941 l 0.452428,0.404397 -0.367937,0.382969 c -0.636796,0.662814 -1.555311,0.986215 -2.238787,0.78826 z m -0.371103,-0.684477 c -0.20015,-0.383792 -0.20163,-0.549824 -0.0082,-0.920597 0.205134,-0.393246 0.07273,-0.368564 -0.428991,0.07999 l -0.416894,0.372704 0.474649,0.421087 c 0.261056,0.231598 0.489436,0.406301 0.507507,0.38823 0.01807,-0.01805 -0.03954,-0.171707 -0.128056,-0.341407 z m 2.337692,-0.253386 0.211402,-0.23391 -0.406188,-0.372245 c -0.223403,-0.204732 -0.435086,-0.343341 -0.470412,-0.308012 -0.03532,0.03532 -0.0075,0.120906 0.06172,0.190184 0.17935,0.179348 0.156559,0.883454 -0.03372,1.041359 -0.08781,0.07288 -0.159665,0.177804 -0.159665,0.233168 0,0.121788 0.503771,-0.226274 0.796839,-0.550544 z m -1.914483,0.210938 c -0.0515,-0.08333 -0.112729,-0.08951 -0.18369,-0.01854 -0.05854,0.05854 -0.07168,0.162684 -0.02921,0.23143 0.0515,0.08333 0.112733,0.08951 0.183692,0.01854 0.05854,-0.05854 0.07168,-0.162684 0.02921,-0.23143 z m 1.106448,-0.678389 c 0.24877,-0.299746 -0.181535,-0.730058 -0.481287,-0.481289 -0.153803,0.127651 -0.195506,0.436203 -0.07521,0.556502 0.120296,0.120294 0.428851,0.07859 0.556496,-0.07522 z"
       style="fill:#ffffff;stroke-width:0.106442"
       id="path359-9" /><text
       xml:space="preserve"
       style="font-size:3.52778px;line-height:1.25;font-family:Arial;-inkscape-font-specification:Arial;letter-spacing:0px;word-spacing:0px;fill:#ffffff;stroke-width:0.264583"
       x="7.8151989"
       y="79.871437"
       id="text1939-7-8-0-5-3"><tspan
         sodipodi:role="line"
         id="tspan1937-9-0-7-6-0"
         style="font-style:normal;font-variant:normal;font-weight:normal;font-stretch:normal;font-size:3.52778px;font-family:Calibri;-inkscape-font-specification:Calibri;fill:#ffffff;stroke-width:0.264583"
         x="7.8151989"
         y="79.871437">Finitions</tspan></text><path
       style="fill:none;stroke:#ffffff;stroke-width:0.264583px;stroke-linecap:butt;stroke-linejoin:miter;stroke-opacity:1"
       d="m 23.8125,49.440908 c 8.729167,0 17.458333,0 26.1875,0"
       id="path2780"
       inkscape:path-effect="#path-effect2782"
       inkscape:original-d="M 23.8125,49.440908 H 50"
       sodipodi:nodetypes="cc" /><text
       xml:space="preserve"
       style="font-size:4.23333px;line-height:1.25;font-family:Arial;-inkscape-font-specification:Arial;letter-spacing:0px;word-spacing:0px;fill:#ffffff;stroke-width:0.264583"
       x="2.2902999"
       y="10.80864"
       id="text1939-2"><tspan
         sodipodi:role="line"
         id="tspan1937-0"
         style="font-style:normal;font-variant:normal;font-weight:normal;font-stretch:normal;font-size:4.23333px;font-family:Calibri;-inkscape-font-specification:Calibri;fill:#ffffff;stroke-width:0.264583"
         x="2.2902999"
         y="10.80864">Type de vue</tspan></text><path
       style="fill:none;stroke:#ffffff;stroke-width:0.264583px;stroke-linecap:butt;stroke-linejoin:miter;stroke-opacity:1"
       d="m 23.8125,9.7451402 c 8.729167,0 17.458333,0 26.1875,0"
       id="path2780-8"
       inkscape:path-effect="#path-effect2782-5"
       inkscape:original-d="M 23.8125,9.7451402 H 50"
       sodipodi:nodetypes="cc" /></g></svg>
